<svg xmlns="http://www.w3.org/2000/svg" xml:space="preserve" id="Layer_1" width="100%" x="0" y="0" viewBox="0 0 1024 1024"><path fill="#2082bc" d="M711.99 454.021c-.434 1.365-.866 2.73-1.417 4.435-4.792 7.362-9.141 14.627-14.206 21.355-11.967 15.897-23.634 32.09-36.585 47.163-22.817 26.557-46.38 52.478-69.867 78.451-15.162 16.767-29.588 34.07-40.908 53.7-12.189 21.137-21.42 43.499-26.43 67.477-.535 2.563-.872 5.167-1.27 8.244.03.49.046.79-.103.88-.356.222-.582.297-1-.016-1.332-2.927-2.489-5.519-3.515-8.468.787-.95 1.465-2.077 2.094-2.05 3.967.172 1.925-1.708 1.205-3.567 3.328-10.76 5.962-21.408 10.133-31.415 4.796-11.507 10.378-22.784 16.68-33.54 6.24-10.647 13.299-20.915 20.925-30.622 7.844-9.982 16.864-19.034 25.266-28.585 8.644-9.826 17.124-19.797 25.748-29.642 14.51-16.568 29.398-32.817 43.517-49.71 11.004-13.167 21.137-27.067 31.546-40.725 4.855-6.371 9.446-12.943 14.452-19.555 1.441-1.358 2.588-2.584 3.734-3.81"/><path fill="#37a1d1" d="M519.973 722.022c.735 1.462 2.777 3.342-1.19 3.17-.629-.027-1.307 1.1-2.374 1.853-1.203-.73-1.995-1.62-2.547-2.239 0 12.328-.872 24.67.224 36.834 1.337 14.848 3.696 29.68 6.75 44.28 4.488 21.457 16.468 39.336 28.988 56.886 6.186 8.67 11.877 17.87 12.626 28.886.424 6.248-.275 12.573-.389 19.1.015.563-.023.893-.032 1.226 0 0-.457.072-1.037.087-3.729 2.3-6.879 4.587-9.981 6.527 9.957-12.252 11.426-25.585 4.787-39.117-4.913-10.014-10.831-19.742-17.625-28.58-10.985-14.292-17.775-30.473-21.79-47.542-4.39-18.653-6.957-37.786-6.314-57.12.125-3.742-.959-5.825-5.055-5.283.312-1.274.36-2.698.983-3.796 2.587-4.56 2.93-9.001.11-13.612-.661-1.082-.733-2.524-.75-4.136 1.708.939 3.09 2.213 4.546 3.557l2.678-3.184zM314.73 454.928c-1.06-1.803-1.874-3.4-2.293-5.416.822-1.22 1.572-1.998 1.628-2.824 1.488-21.567 7.524-41.817 18.904-60.136 5.065-8.15 11.924-15.186 17.979-22.375-1.287 2.173-2.584 3.994-3.938 6.163-3.58 5.483-7.319 10.486-10.555 15.797-2.49 4.088-4.348 8.562-6.822 12.917-1.082 1.378-1.829 2.704-2.58 4.253-.006.224-.032.671-.349.84-1.79 4.731-3.265 9.294-4.737 14.186-.006.77-.015 1.21-.308 1.685-.425.683-.566 1.332-.703 2.314-.008.775-.019 1.219-.364 1.72-.743 1.02-1.152 1.983-1.575 3.348-.361 2.797-.71 5.192-1.33 7.863-.658 2.02-1.328 3.754-1.38 5.507-.146 4.911-1.766 10.157 2.653 14.633l.167 3.488c-.397.01-.793.019-1.486.028-1.085-1.261-1.875-2.523-2.91-3.991"/><path fill="#2082bc" d="M550.963 918.979c3.15-2.287 6.3-4.573 9.801-6.835.24.442.127.86-.122 1.75-.138.472-.216.815-.216.815-7.467 4.814-14.48 10.644-22.495 14.232-17.04 7.628-34.478 7.022-51.305-1.27-4.822-2.375-9.103-5.848-13.762-9.123-.13-.306.037-.457.45-.513.858-.058 1.304-.06 2.046.1 3.073 1.739 5.849 3.317 8.79 5.2 2.065 1.091 3.965 1.878 6.107 2.673.241.008.723.032.791.383 4.052 1.756 8.036 3.163 12.336 4.57.738.01 1.16.018 1.882.32 4.007.434 7.72.732 11.42.623 1.133-.034 2.233-1.185 3.674-1.837.76-.01 1.196-.007 1.86.246 1.424-.24 2.618-.73 4.22-1.243 1.775-.044 3.14-.068 4.808-.1.786-.311 1.27-.614 2.128-.938 4.786-2.041 9.198-4.06 13.905-6.097.751-.335 1.207-.653 1.687-.958.022.013-.004-.032.247-.187.438-.704.624-1.253 1.044-1.803z"/><path fill="#131b43" d="M993.208 950.793c.361-.597.786-.898 1.21-1.199l.343 1.332c-.497.055-.993.11-1.553-.133"/><path fill="#f8f9f9" d="M350.937 363.824c-6.044 7.542-12.903 14.577-17.968 22.728-11.38 18.319-17.416 38.569-18.904 60.136-.056.826-.806 1.604-1.658 2.487-8.726-15.844-16.196-32.087-21.314-49.395-7.96-26.917-11.46-54.291-9.812-82.324 2.363-40.207 13.086-77.858 34.314-112.285 19.384-31.437 44.534-57.198 76.42-77.033.709-.523.916-.796 1.124-1.07.773-.341 1.545-.683 2.838-1.238 1.107-.706 1.694-1.199 2.281-1.692 0 0 .406-.009.864-.142 1.023-.705 1.588-1.278 2.152-1.852a70 70 0 0 0 1.681-.386c1.06-.661 1.594-1.19 2.128-1.718 0 0 .482-.04.958-.102.714-.314.95-.566 1.186-.818.728-.37 1.457-.738 2.75-1.238 1.189-.64 1.813-1.148 2.438-1.657.357-.063.714-.126 1.605-.32 1.2-.605 1.866-1.082 2.531-1.558.33-.06.66-.121 1.575-.292 13.628-4.562 26.59-9.278 39.748-13.36 7.397-2.296 15.119-3.544 22.694-5.264.306.147.622.173 1.503.122 7.188-.695 13.821-1.434 20.454-2.173.61.042 1.218.085 2.47.25 5.786-.026 10.93-.175 16.072-.323.611.07 1.222.14 2.407.4 6.933.707 13.291 1.225 19.65 1.743.425.104.85.209 1.9.505 5.454.901 10.283 1.61 15.112 2.318.415.15.83.298 1.816.674 1.442.283 2.313.34 3.184.398.411.151.822.303 1.834.69 9.423 2.779 18.244 5.32 27.066 7.861.308.146.615.293 1.39.737 5.871 2.532 11.274 4.765 16.678 6.999.555.255 1.11.51 2.142 1.096 1.255.595 2.033.859 2.81 1.123.705.387 1.41.775 2.495 1.526a19 19 0 0 0 2.533 1.357c1.313.75 2.627 1.5 4.363 2.658 1.16.72 1.898 1.034 2.636 1.347.287.182.575.364 1.268.881a39 39 0 0 0 2.557 1.553c1.43.896 2.858 1.793 4.668 3.097.738.474 1.096.54 1.454.607 0 0 .294.263.577.59.986.737 1.689 1.146 2.391 1.555.458.294.915.59 1.723 1.25 1.052.692 1.753 1.017 2.454 1.342 0 0-.031.201.076.515.65.523 1.194.733 1.738.943.273.22.547.442 1.075.977.255.315.567.616.567.616l.433-.006c.87.621 1.738 1.243 2.933 2.378 1.577 1.255 2.828 1.994 4.08 2.734.3.25.6.5 1.16 1.218 1.095.978 1.934 1.489 2.772 2 3.2 2.866 6.398 5.732 9.914 9.073.922.92 1.525 1.364 2.13 1.809.22.266.44.531.903 1.234.866.859 1.49 1.28 2.113 1.702.227.27.455.541.907 1.272.85.896 1.474 1.333 2.1 1.77.174.292.35.584.809 1.317 1.623 1.734 2.963 3.027 4.303 4.32 0 0 .279.325.375.47s.254.023.254.023c.7.8 1.398 1.602 2.31 2.91.313.875.55 1.035.928.988.196.285.39.57.833 1.227.541.534.836.696 1.13.858.095.2.189.398.43.962.147.366.333.663.333.663l.35-.02c.197.355.393.71.888 1.43.475.662.736.787 1.079.739 0 0-.027.15.068.463.638.876 1.181 1.44 1.724 2.002 0 0 .108.437.264.825.29.75.546.89.923.808 0 0-.013.102.06.345.357.39.64.536.921.683.31.557.62 1.114 1.14 2.09.31.752.536.905.884.875 0 0-.034.097.007.37.336.438.632.603.928.769.08.188.158.376.351.978.167.759.368.912.716.873 0 0-.04.103-.003.384.343.427.649.573.955.718 0 0-.023.07.03.375.632.858 1.212 1.41 1.79 1.963 0 0 .101.415.207.812.378.587.649.778.92.97.057.161.115.322.33.949.663.99 1.17 1.516 1.677 2.041.07.178.14.356.333.942.162.757.357.944.707.97 0 0-.037.042-.028.327.323.466.636.647.95.83.063.161.126.324.314.875.225.744.452.873.807.779.294.555.588 1.11.976 2.196.362.738.63.945.898 1.152.647 1.097 1.293 2.193 2.084 3.867.734 1.097 1.325 1.617 1.917 2.137.286.786.572 1.571 1.055 2.903.722 1.153 1.246 1.76 1.77 2.367.17.353.34.706.664 1.619 2.271 4.746 4.387 8.933 6.503 13.12.1.437.2.874.399 1.94 3.163 8.242 6.228 15.854 9.293 23.466.222 1.224.444 2.448.726 4.362.721 2.473 1.382 4.254 2.043 6.036 0 .447.002.894.043 2 .646 2.784 1.25 4.907 1.856 7.03.03.44.061.88.109 2.012 1.334 7.447 2.652 14.201 3.97 20.956.007.749.015 1.497-.027 3.024.272 11.662.723 22.545.863 33.431.08 6.227-.345 12.46-.543 18.69-.11.881-.22 1.762-.522 3.25-1.9 10.347-3.607 20.087-5.314 29.827-.229.71-.458 1.42-.916 2.78-2.68 8.494-5.131 16.339-7.583 24.183a75 75 0 0 1-1.75 3.484c-.84 2.18-1.359 3.868-1.877 5.555-.335.552-.67 1.104-1.343 2.163-.797 1.95-1.255 3.392-1.714 4.834a97 97 0 0 1-2.265 4.13c-.813 1.624-1.27 2.751-1.725 3.88-.579.96-1.157 1.923-2.084 3.382-2.027 3.275-3.706 6.053-5.464 8.294-.826-7.3-1.21-14.128-2.383-20.816-4.833-27.537-17.857-50.805-37.454-70.707-.019-.15-.284-.298-.328-.56-.327-.441-.61-.619-.918-.77-.025.026.011-.038-.108-.231a5 5 0 0 0-.848-.833c-.05-.032-.142.042-.05-.247.084-.695.077-1.1.4-1.707.941-8.128 1.552-16.055 2.308-24.386.086-1.822.028-3.24.136-4.852.046-.997-.073-1.799-.065-3 .004-1.497-.119-2.594-.104-4.136-1.209-9.799-2.556-19.152-3.838-28.858-.082-.799-.23-1.245-.294-2.074-1.73-6.235-2.964-12.35-5.481-17.882-4.615-10.14-9.987-19.936-15.096-30.21-.849-1.398-1.645-2.462-2.412-3.814-.478-.844-.985-1.4-1.545-2.282-1.17-1.695-2.287-3.063-3.397-4.737-.863-1.136-1.735-1.966-2.634-3.117-.752-1.07-1.477-1.818-2.195-2.831-.243-.496-.491-.727-.808-1.281-2.758-3.03-5.449-5.737-8.204-8.748-1.011-1.023-1.959-1.743-2.89-2.555.014-.092-.173-.086-.201-.378-.59-.767-1.152-1.243-1.89-2.001-1.182-1.106-2.188-1.928-3.188-2.91.007-.158-.243-.353-.243-.353s-.29.13-.434-.205c-1.14-1-2.135-1.663-3.192-2.604-.632-.704-1.203-1.13-1.934-1.8-.68-.49-1.198-.737-1.773-1.26-.378-.43-.698-.586-1.154-1.012-.514-.366-.893-.461-1.405-.82-1.262-1.006-2.39-1.748-3.678-2.693-.332-.205-.505-.207-.838-.49-1.804-1.292-3.446-2.303-5.094-3.444-.007-.13-.264-.09-.353-.365-.943-.678-1.797-1.08-2.661-1.62-.01-.14-.285-.09-.351-.36-.895-.552-1.723-.836-2.773-1.39-1.02-.693-1.817-1.117-2.753-1.833-1.108-.69-2.08-1.088-3.068-1.56-.017-.072-.158-.021-.176-.185s-.314-.306-.314-.306-.237.227-.508-.035c-.75-.392-1.23-.522-1.824-.978-3.12-1.538-6.125-2.751-9.426-4.197-.546-.246-.796-.26-1.233-.539-7.054-2.581-13.78-5.582-20.825-7.049-9.44-1.966-19.13-2.746-28.913-4.177-.566-.246-.858-.143-1.377-.096-6.54-.105-12.782.052-19.355.05-1.529-.001-2.727.155-4.274.175-11.857 2.273-23.671 3.718-34.82 7.26-42.693 13.56-73.868 41.155-93.923 80.917-16.426 32.567-19.616 67.322-14.388 103.36-.136.496-.077.714-.232.945-.214.014-.495.339-.829.412-1.116 1.14-1.898 2.21-2.893 3.354-.483.254-.637.502-.677.823"/><path fill="#268fc5" d="M672.296 360.449c19.58 19.752 32.603 43.02 37.436 70.557 1.174 6.688 1.557 13.516 2.505 20.966.266.968.427 1.175.684 1.307a7 7 0 0 1-.68.58c-1.398 1.388-2.545 2.614-3.978 3.507-.279-4.164.037-8.025-.327-11.822-.707-7.39-.943-14.983-2.94-22.05-2.54-8.992-5.906-17.928-10.254-26.184-4.727-8.975-10.986-17.144-16.581-25.662-1.997-3.04-4.717-3.837-8.068-2.964.748-3.009 1.476-5.622 2.203-8.235"/><path fill="#099bdd" d="M670.072 369.08c3.372-1.27 6.092-.472 8.089 2.568 5.595 8.518 11.854 16.687 16.58 25.662 4.349 8.256 7.715 17.192 10.256 26.184 1.996 7.067 2.232 14.66 2.94 22.05.363 3.797.047 7.658.031 11.954-4.719 6.945-9.31 13.517-14.165 19.888-10.409 13.658-20.542 27.558-31.546 40.725-14.119 16.893-29.007 33.142-43.517 49.71-8.624 9.845-17.104 19.816-25.748 29.642-8.402 9.55-17.422 18.603-25.266 28.585-7.626 9.707-14.685 19.975-20.925 30.623-6.302 10.755-11.884 22.032-16.68 33.539-4.17 10.007-6.805 20.654-10.133 31.415-2.26-.272-4.503-.941-7.407-1.806l-2.678 3.184c-1.457-1.344-2.838-2.618-4.552-3.946-.682-1.473-1.03-2.892-1.382-5.056-.662-1.824-1.322-2.902-1.981-3.98-.31-.793-.62-1.586-.713-2.925-.994-5.736-1.774-11.08-3.574-16.054-1.077-2.974-3.751-5.37-5.708-8.027-.907-2.121-1.815-4.243-2.967-6.907-.438-.827-.695-1.028-1.018-1.145 0 0-.01-.468-.12-.93-.306-.747-.571-.933-.907-1.018-.314-.475-.628-.95-.714-1.93-.612-2.02-1.452-3.534-2.292-5.048-.315-.477-.63-.955-.722-1.931-.935-2.04-2.093-3.581-3.25-5.123-10.172-18.315-22.045-35.281-36.724-50.426-14.081-14.526-27.039-30.136-40.679-45.098-8.342-9.151-17.23-17.81-25.497-27.025-3.914-4.363-6.804-9.626-10.413-14.283-6.287-8.11-13.084-15.839-19.1-24.139-8.806-12.15-17.102-24.67-25.656-37.006-.536-.773-1.415-1.31-2.47-2.035-.387-1.113-.436-2.146-.491-3.997-.342-7.209-.678-13.599-1.014-19.988.348-2.394.697-4.789 1.396-7.647.757-1.425 1.164-2.385 1.571-3.345.011-.443.022-.887.281-1.828.411-1.06.574-1.621.736-2.183.009-.44.018-.88.31-1.86 1.777-5.076 3.273-9.61 4.768-14.145 0 0 .026-.447.378-.738 1.091-1.608 1.83-2.923 2.569-4.239 2.139-4.302 3.996-8.776 6.487-12.864 3.236-5.31 6.976-10.314 10.916-15.8 2.274-1.275 4.13-2.198 6.528-3.39.438 1.402.841 2.561 1.162 3.742 1.73 6.353 2.73 13.017 5.312 19 4.404 10.21 9.553 20.127 14.87 29.905 2.958 5.442 6.764 10.444 10.406 15.488a1080 1080 0 0 0 17.144 23.052c2.268 2.971 4.816 5.744 7.382 8.47 5.748 6.103 11.597 12.11 17.388 18.174 6.957 7.286 13.843 14.64 20.856 21.872 10.82 11.157 21.722 22.235 32.673 33.516.383.09.681.011 1.196-.065.217.003.647-.057.874.065.4.415.572.706.748 1.302.03.71.058 1.115.17 1.69.364.08.644-.012.95-.316.028-.214-.017-.642.238-.507.715.758 1.174 1.382 1.634 2.277.024.638.047 1.004-.162 1.569.604 1.061 1.44 1.925 2.268 2.803-.006.014.022.002.053.362 1.941 2.506 1.289 7.07 5.943 6.636 0 .01.025.007.023.38 3.195 4.166 6.67 7.764 9.508 11.809 2.598 3.7 5.9 5.638 10.084 4.583 4.324-1.091 7.556-3.961 8.379-9.006.017-.234.035-.705.359-.758.583-.554.841-1.055 1.148-1.567.047-.01.004-.098.362.093 2.292-2.048 4.225-4.288 6.285-6.785.699-.744 1.272-1.231 2.21-1.767 1-1.437 1.635-2.826 2.374-4.066.104.148-.084-.16.244-.214.532-.643.737-1.233 1.053-2.08.673-.73 1.236-1.203 2.148-1.679.824-.678 1.3-1.354 1.83-2.242.057-.212.323-.562.467-.54.143.022.434.013.564.154.412-.008.694-.157.998-.587.05-.655.078-1.029.116-1.473.01-.071.152-.09.434-.109a60 60 0 0 0 1.756-.142c1.116-1.017 1.893-1.993 3.022-3.01 1.827-2.3 3.304-4.558 5.058-6.881.716-.4 1.154-.734 1.583-1.08-.009-.011.011.004.231-.105.495-.313.681-.578.909-1.16a14.6 14.6 0 0 1 2.062-1.845c.419-.379.61-.65.944-1.19 1.042-1.082 1.94-1.894 3.16-2.75.78-.68 1.24-1.315 2.043-1.99 2.07-1.498 3.879-2.875 5.429-4.499.225-.235-.791-1.655-1.202-2.798.781-.76 1.532-1.25 2.6-1.72.822-.3 1.327-.619 1.824-.947-.009-.011.006.009.228-.103.498-.318.685-.587.93-1.197 1.374-1.417 2.601-2.554 4.151-3.736.781-.691 1.24-1.337 1.81-2.193.31-.47.561-.655 1.19-.811.782-.69 1.241-1.335 1.812-2.188.305-.468.555-.65 1.213-.796 5.567-3.084 9.676-7.099 12.045-12.993 2.221-1.353 4.444-2.355 5.9-4.026a968 968 0 0 0 20.936-24.833c1.372-1.685 1.888-4.067 2.91-6.338.302-.474.55-.666 1.206-.85.83-1.3 1.31-2.535 2.003-3.812.214-.041.641-.126.867-.235.413-.38.6-.651.902-1.132.315-.468.569-.656 1.22-.825.794-1.021 1.243-1.988 1.804-3.161.308-.466.557-.65 1.208-.8 4.418-5.087 8.83-9.904 12.449-15.257 2.618-3.872 4.18-8.457 6.21-12.725-.003 0 0 .007.34-.046 6.981-5.639 7.637-14.204 10.818-21.483 1.558-3.566 1.946-7.644 2.872-11.805.02-.733.031-1.153.324-1.632.421-.728.562-1.395.705-2.374.011-.726.02-1.14.307-1.62.406-.728.533-1.391.665-2.372z"/><path fill="#0a9dde" d="M490.98 926.04s-.482-.024-.79-.384c-2.274-1.115-4.24-1.87-6.205-2.626-2.776-1.578-5.552-3.156-8.686-5.211-.999-.926-1.64-1.374-2.282-1.823 0 0-.014.002-.032-.3-.345-.756-.671-1.212-.998-1.667-1.453-1.255-2.907-2.51-4.67-4.257a54 54 0 0 0-2.34-2.777c-3-6.067-6.001-12.134-9.004-18.985-.98-2.55-1.96-4.314-2.938-6.078-.013-1.045-.027-2.09.212-3.78-1.362-10.03.6-19.107 2.648-28.176 1.35-4.741 2.701-9.482 4.335-14.8 2.784-6.77 5.284-12.964 7.784-19.159 0 0-.012-.017.34-.067.761-1.023 1.17-1.995 1.58-2.967 2.345-5.435 4.59-10.916 7.057-16.295 3.767-8.213 7.537-16.432 11.58-24.511 5.163-10.316 10.598-20.496 16.18-30.96 4.36-.769 5.443 1.314 5.318 5.056-.643 19.334 1.925 38.467 6.313 57.12 4.016 17.069 10.806 33.25 21.791 47.542 6.794 8.838 12.712 18.566 17.625 28.58 6.639 13.532 5.17 26.865-4.787 39.117-.048.347-.517.353-1.003.513-.672.706-.858 1.253-1.044 1.8 0 0 .026.045-.286.055-.772.324-1.232.638-1.692.951-4.412 2.02-8.824 4.04-13.777 5.849-1.114.253-1.688.716-2.262 1.18a581 581 0 0 1-4.861.066c-1.875.337-2.985.677-4.095 1.017-.435-.003-.87-.006-2.1-.022-5.504.306-10.215.627-14.925.947-.422-.009-.844-.018-1.67-.374-4.374-1.757-8.345-3.166-12.316-4.574"/><path fill="#f0f7f8" d="M575.542 883.095c-.992 3.17-1.985 6.34-3.275 10.078a27 27 0 0 0-.91 2.903c-2.948 4.66-5.896 9.322-9.11 14.231-.072-6.042.627-12.367.203-18.615-.75-11.016-6.44-20.216-12.626-28.886-12.52-17.55-24.5-35.429-28.988-56.886-3.054-14.6-5.413-29.432-6.75-44.28-1.096-12.165-.224-24.506-.224-36.834a66 66 0 0 0 2.416 2.596c1.437 2.79 2.594 5.381 3.946 8.632 1.28 2.27 2.365 3.88 3.45 5.49.18.615.362 1.23.642 2.414.561 1.188 1.024 1.806 1.486 2.425.147.363.293.727.53 1.599.48 1.214.87 1.92 1.26 2.625.078.335.157.67.419 1.494a21.5 21.5 0 0 0 1.695 2.413c.066.351.133.703.346 1.556.705 1.065 1.263 1.628 1.821 2.19a233 233 0 0 1 2.338 5.733c1.33 2.52 2.47 4.435 3.612 6.351.146.501.292 1.002.676 1.994.81 1.442 1.38 2.394 1.95 3.347.12.317.24.635.57 1.424a20 20 0 0 0 1.815 2.216c.342 1.032.684 2.065 1.178 3.678.684 1.2 1.215 1.82 1.747 2.44.067.359.135.718.348 1.604.68 1.1 1.214 1.672 1.748 2.245 1.284 2.703 2.567 5.406 3.96 8.725.452 1.11.793 1.605 1.135 2.1.058.16.116.32.33.967.943 1.758 1.73 3.029 2.518 4.3a650 650 0 0 1 2.106 4.715c1.108 2.189 1.97 3.79 2.83 5.392.186.34.371.68.707 1.536.927 1.726 1.703 2.936 2.48 4.146.65 1.75 1.302 3.501 2.113 5.792.405.758.65.977.894 1.195a120 120 0 0 1 1.165 3.849c.943 2.291 1.737 3.939 2.53 5.586a352 352 0 0 1 2.4 7.42c.798 2.443 1.438 4.214 2.078 5.986.08.746.16 1.492.28 2.842.282 1.118.523 1.632.764 2.147.056.744.112 1.488.187 3.041.134 6.57.249 12.331.363 18.092a65 65 0 0 1-.83 3.705c-.244 1.15-.283 1.719-.323 2.287"/><path fill="#2082bc" d="M481.008 539.996c-10.867-11.111-21.769-22.189-32.589-33.346-7.013-7.231-13.899-14.586-20.856-21.872-5.79-6.063-11.64-12.07-17.388-18.174-2.566-2.726-5.114-5.499-7.382-8.47a1080 1080 0 0 1-17.144-23.052c-3.642-5.044-7.448-10.046-10.407-15.488-5.316-9.778-10.465-19.695-14.87-29.905-2.58-5.983-3.582-12.647-5.31-19-.322-1.18-.725-2.34-1.163-3.742-2.397 1.192-4.254 2.115-6.472 3.041.937-1.817 2.234-3.638 3.52-5.811.03-.674.184-.922 1-1.105 1.604.075 2.66.155 3.98.5.627 1.344 1 2.422 1.354 3.506 3.594 10.99 5.95 22.602 11.092 32.813 6.342 12.596 15.001 24.026 22.775 36.274 1.678 2.164 3.24 4.012 4.862 6.188 1.39 1.758 2.72 3.189 4.069 4.939.667 1.117 1.314 1.915 1.992 3.04.964 1.195 1.896 2.063 2.85 3.129.021.198.233.537.305.843 1.303 1.432 2.534 2.557 3.766 3.691.002.01.02.015.055.352 1.297 1.556 2.56 2.776 3.835 4.176.012.18.215.479.235.808.951 1.16 1.882 1.991 2.944 3.128 2.716 3.063 5.3 5.822 7.931 8.92 8.838 9.997 17.523 19.754 26.449 29.287 8.372 8.942 16.998 17.645 25.65 26.755 2.373 3.075 4.608 5.849 6.844 8.623 0 0-.43.06-.912.02a53 53 0 0 0-1.015-.068"/><path fill="#268fc5" d="M317.688 435.263c.607 6.112.943 12.502 1.267 19.321-4.414-3.657-2.794-8.903-2.648-13.814.052-1.753.722-3.487 1.38-5.507"/><path fill="#121a41" d="M395.95 442.026c-1.562-1.849-3.124-3.697-4.812-6.234-3.433-7.192-6.638-13.75-10.08-20.182-2.467-4.61-5.435-8.953-7.835-13.593-1.879-3.631-3.27-7.52-4.806-11.323-2.066-5.113-5.95-9.11-5.897-15.611.038-4.739-4.128-9.51-6.438-14.487-.19-.604-.361-.989-.532-1.374-.059-.218-.118-.436.37-.927 1.613-.481 2.678-.69 3.723-.894-.586-4.123-1.598-7.88-1.567-11.63.115-14.096.254-28.207.979-42.282.883-17.132 7.576-32.778 14.441-48.09 7.11-15.855 17.685-29.595 30.305-41.603 2.901-2.76 6.64-4.625 9.68-7.263 2.942-2.553 5.015-6.401 8.282-8.236 12.793-7.183 25.886-13.837 38.923-20.58 2.287-1.183 4.84-1.85 7.69-2.741 6.838-1.329 13.255-2.671 20.064-4.016 3.098-.667 5.806-1.333 8.987-1.982 19.126-.947 37.618.732 55.632 5.364 17.457 4.488 33.675 12.042 48.519 22.575 15.721 11.157 29.898 23.938 40.463 40.001 8.696 13.222 16.788 27 20.146 42.902 1.296 6.14 3.207 12.148 4.838 18.58.333 1.763.665 3.164.99 5.033.666 9.85 1.34 19.232 1.955 29.012-.688 5.106-1.318 9.813-1.966 14.938-.347 2.518-.777 4.608-.976 6.72-.195 2.064-.172 4.164 2.906 3.844 0 0 .092-.074.06.23.039.48.108.657.207 1.246-2.639 10.165-4.794 20.096-8.13 29.612-2.89 8.242-7.12 16.015-10.92 24.219-.22.584-.276.944-.636 1.467-1.255 1.877-2.208 3.59-3.302 5.491-.14.187-.275.636-.592.734-1.33 1.76-2.342 3.42-3.488 5.243-.135.16-.235.57-.55.694-1.307 1.797-2.3 3.47-3.503 5.338-.521.671-.834 1.145-1.458 1.712-.96 1.096-1.607 2.1-2.409 3.271-.153.168-.3.599-.62.711-2.289 2.799-4.257 5.484-6.514 8.276-.576.62-.863 1.133-1.48 1.733-2.328 2.76-4.327 5.433-6.58 8.301-1.206 1.319-2.158 2.443-3.428 3.67-1.341 1.445-2.366 2.787-3.561 4.377-.82 1.006-1.469 1.764-2.437 2.622-1.272 1.447-2.225 2.794-3.449 4.351-.89.85-1.508 1.49-2.303 2.122-.43.113-.515.307-.593.769-.22.349-.278.506-.633.764-.754.75-1.212 1.4-1.643 2.075.028.025-.022-.03-.35.036-2.142 2.336-3.954 4.606-5.7 6.919.065.042-.043-.07-.356.01-1.082 1.06-1.85 2.042-2.592 3.041.026.019-.011-.034-.34.04-3.037 3.07-5.746 6.065-8.508 9.05-.053-.01-.05.097-.352.183-1.196 1.232-2.09 2.378-3.273 3.644-1.082 1.061-1.873 2.003-2.983 3.046-2.307 2.431-4.295 4.76-6.438 7.29-.174.37-.193.537-.212.705-.751.49-1.502.978-2.59 1.927-1.684 1.942-3.03 3.425-4.675 5.013-.761.757-1.225 1.41-1.674 2.067.016.005-.01-.036-.343.025-3.014 3.064-5.694 6.067-8.444 9.084-.07.015-.054.158-.273.211-.507.24-.62.502-.644.854-.084.014-.127.181-.432.168-.667.599-1.029 1.21-1.52 1.89-.128.068-.27.323-.415.282s-.37.155-.37.155.074.289-.17.497c-.626.714-1.008 1.22-1.68 1.834-.758.75-1.227 1.39-1.922 2.117-.512.28-.681.548-1.04.967-.66.758-1.014 1.437-1.368 2.117 0 0-.142.019-.468.069-.72.668-1.113 1.286-1.506 1.905 0 0-.266.35-.615.657a46 46 0 0 0-1.888 2.15c-.562.473-1.125.946-2.077 1.808-.627.927-.864 1.465-1.102 2.002 0 0 .188.308-.188.256-1.079.61-1.783 1.274-2.81 2.023-1.64 1.731-2.957 3.378-4.552 5.25-1.383 1.837-2.488 3.447-3.593 5.058 0 0 .043.088-.255.042-.632.084-.964.214-1.612.437-.847.753-1.38 1.413-2.113 2.16-.45.267-.592.511-.914.933-.76.757-1.229 1.4-1.658 2.07.039.026-.018-.05-.37.022-3.188 3.02-5.853 2.136-8.48-.265-1.692-1.547-3.424-3.05-5.328-4.82-.797-.782-1.405-1.319-2.013-2.19-2.912-3.63-5.727-7.02-8.776-10.183-1.841-1.912-4.047-3.472-6.09-5.19-.458-.624-.917-1.248-1.71-2.278-.65-.57-.967-.735-1.284-.899a4.7 4.7 0 0 0-.744-.998c-2.463-2.896-4.698-5.67-7.06-9.132-1.1-2.947-1.62-5.584-3.13-7.395a338 338 0 0 0-15.473-17.294c-9.293-9.698-18.727-19.264-28.256-28.73-1.317-1.31-3.51-1.739-5.298-2.575-2.584-2.759-5.168-5.518-7.888-8.932-1.078-1.472-2.019-2.29-2.96-3.106 0 0-.203-.299-.197-.854-1.292-1.75-2.59-2.944-3.887-4.138 0 0-.02-.005-.022-.386-1.28-1.462-2.559-2.544-3.837-3.626 0 0-.212-.339-.226-.901-.972-1.406-1.93-2.249-2.888-3.092-.647-.798-1.294-1.596-1.728-2.91-1.313-2.033-2.838-3.551-4.363-5.07m43.316-186.128c-.281.111-.564.218-1.596.27-.562.938-1.125 1.876-2.405 2.904-1.097 1.968-2.193 3.936-3.971 6.03-.437.968-.873 1.937-1.914 3.23-6.925 10.097-10.124 21.638-11.181 33.503-1.284 14.408-.194 28.96 5.093 42.545 2.723 7 7.732 13.11 11.727 20.361 2.112 3.067 4.08 6.244 6.358 9.181 15.006 19.346 35.499 29.63 59.093 32.747 16.78 2.218 33.804.576 49.65-6.675 1.574-.72 2.628-2.58 4.703-3.956 5.719-2.864 12.126-4.878 16.982-8.808 6.062-4.907 10.444-11.839 16.27-17.1 10.407-9.395 13.941-22.141 17.824-34.66 2.692-8.675 2.737-17.625 2.406-26.898-.679-19.002-6.436-35.67-17.486-50.794-8.968-12.275-19.041-23.281-34.144-29.223-.563-.173-1.127-.345-1.693-.55 0 0-.02.028-.12-.697a154 154 0 0 1-3.88-1.303s-.024.032-.099-.675c-1.866-1.234-3.572-3.002-5.624-3.62-19.71-5.927-39.655-6.582-59.555-1.294-4.48 1.19-8.425 4.385-12.65 6.624 0 0-.016.045-.759.003-.728.75-1.455 1.501-2.56 2.662-.521.184-1.042.367-1.916.005-.964.478-1.93.957-3.288 1.68-.391.251-.783.502-1.955.713-1.533 1.66-3.065 3.32-4.915 5.062 0 0-.327-.024-1.135-.109-3.707 1.718-8.488 2.3-8.483 7.987 0 0 0 .04-.75 0a412 412 0 0 1-2.234 3.013s-.023.028-.722.08c-.396.743-.79 1.487-1.353 2.557-.15.201-.338.354-1.376.452a53 53 0 0 0-1.583 3.629c-.11.318-.221.635-.759 1.124"/><path fill="#171a36" d="M497.427 168.978c.127-.534.727-1.05 1.474-1.828 1.345-.417 2.543-.573 4.589-.473 6.944.209 13.04.161 19.137.114.22-.31.512-.413 1.342.164 11.18 2.366 21.94 4.045 32.592 6.237 5.783 1.19 11.385 3.253 17.069 4.922.25.014.5.029 1.152.578 3.413 1.763 6.424 2.991 9.435 4.22.479.13.958.26 1.788.723.351.332.761.434.761.434s.14-.051.233.363c1.105.78 2.118 1.145 3.13 1.51.799.424 1.597.848 2.712 1.792 1.125.816 1.934 1.112 2.743 1.409 0 0 .274-.05.366.38.95.821 1.81 1.213 2.669 1.606 0 0 .257-.04.356.403 1.788 1.433 3.475 2.422 5.163 3.411.172.002.345.004.724.524 1.393 1.226 2.579 1.934 3.764 2.642.38.095.758.19 1.364.804.525.693.822.867 1.12 1.04.517.247 1.035.494 1.748 1.278.784.952 1.373 1.368 1.962 1.783.996.664 1.991 1.328 3.196 2.418a1.5 1.5 0 0 0 .605.627c1.007.822 2.013 1.644 3.22 3.048.763 1.052 1.328 1.524 1.893 1.995 0 0 .187-.006.233.398.996 1.118 1.945 1.832 2.895 2.547 2.69 2.707 5.38 5.414 8.17 8.695.323.814.547 1.055.77 1.295.725.748 1.45 1.496 2.203 2.89.894 1.465 1.76 2.282 2.625 3.099 1.118 1.368 2.235 2.736 3.383 4.738.533 1.177 1.036 1.72 1.538 2.263.796 1.064 1.592 2.128 2.448 3.894 5.347 12.442 10.698 24.154 15.886 35.938 1.745 3.963 3.08 8.107 4.601 12.169.147.446.295.892.133 1.943-.737 2.758-1.166 4.912-1.595 7.065-1.63-6.068-3.541-12.077-4.837-18.216-3.358-15.902-11.45-29.68-20.146-42.902-10.565-16.063-24.742-28.844-40.463-40-14.844-10.534-31.062-18.088-48.519-22.576-18.014-4.632-36.506-6.311-55.632-5.364"/><path fill="#212541" d="M589.992 185.65c-.875-.073-1.888-.439-2.976-1.145.896.057 1.868.455 2.976 1.145m33.714 25.16c-.537-.18-1.102-.65-1.69-1.42q.806.267 1.69 1.42m-8.947-8.073c-.528-.138-1.117-.554-1.74-1.263.537.133 1.108.56 1.74 1.263m30.821 34.003c-.531-.256-1.034-.8-1.514-1.65.529.25 1.036.805 1.514 1.65M355.999 360.887c-.2-.212-.399-.425-.878-.975-.28-.338 0-.663.215-.677.385.372.556.757.72 1.38-.006.24-.057.272-.057.272m279.81-137.115c-.23.025-.454-.216-.709-.707.218-.02.466.21.709.707"/><path fill="#268fc5" d="M671.95 359.738c-.29.165-.545-.033-.808-.563.199-.055.481.123.808.563m-1.026-1c.12.193-.316.248-.534.26-.288-.164-.357-.34-.346-.789.316-.079.542.123.88.529"/><path fill="#212541" d="M611.052 199.678c-.24.102-.537-.072-.927-.494.229-.093.55.062.927.494m-24.304-15.773c.018.164-.392.062-.472-.009s.158-.297.158-.297.296.142.314.306m31.88 21.995c-.007.159-.404-.04-.468-.132s.225-.222.225-.222.25.195.243.354"/><path fill="#268fc5" d="M610.912 466.793c.649-.757 1.298-1.515 2.447-2.57 1.517-1.676 2.533-3.054 3.55-4.431.952-1.124 1.904-2.248 3.425-3.619 2.275-1.886 3.982-3.526 5.689-5.165-.911 2.06-1.427 4.442-2.8 6.127a968 968 0 0 1-20.935 24.833c-1.456 1.671-3.679 2.673-5.91 4.016-.362.032-.38.014-.383-.343a49 49 0 0 0-.116-1.782s.108.113.402.076c2.086-2.354 3.878-4.672 5.67-6.99 0 0 .049.055.364.005.742-.75 1.17-1.45 1.597-2.15.058-.158.116-.315.453-.737.425-.387.55-.529.652-.689.619-.64 1.237-1.279 2.433-2.194 1.538-1.647 2.5-3.017 3.462-4.387m-109.147 93.256c.609.536 1.217 1.073 2.022 2.208 2.297 3.024 4.014 6.03 6.592 7.726 3.24 2.132 6.346 1.194 7.56-3.066 0 0 .057.076.364.027.739-.753 1.171-1.457 1.604-2.16.03-.309.171-.553.998-.78a34 34 0 0 1 2.077-.021c-.807 4.81-4.039 7.68-8.363 8.77-4.184 1.056-7.486-.881-10.084-4.582-2.838-4.045-6.313-7.643-9.17-11.77 2.361.994 4.38 2.321 6.4 3.648m149.386-146.795c.88-.492 1.596-.76 2.584-1.14-1.761 4.154-3.324 8.739-5.942 12.611-3.618 5.353-8.03 10.17-12.45 14.886-.374-.822-.401-1.315-.43-1.808 0 0 .147-.431.61-.66 1.112-1.252 1.761-2.278 2.41-3.303.313-.474.626-.948 1.458-1.692 1.515-1.977 2.511-3.683 3.507-5.39 0 0 .1-.408.558-.623 1.467-1.906 2.474-3.596 3.482-5.287 0 0 .134-.449.582-.718 1.398-2.037 2.348-3.804 3.298-5.572.057-.36.113-.72.333-1.304m3.191-1.3c1.194-3.35 2.832-6.712 4.24-10.166 3.026-7.421 5.934-14.891 9.166-22.574-.641 3.613-1.029 7.69-2.587 11.257-3.18 7.279-3.837 15.844-10.819 21.483"/><path fill="#2082bc" d="M501.766 559.714c-2.02-.992-4.04-2.319-6.398-3.685-.339-.04-.364-.037-.504-.357-2.038-2.442-3.936-4.564-5.834-6.686 0 0-.028.012-.054-.321-.686-1.116-1.345-1.9-2.005-2.682-.022-.367-.045-.733-.069-1.37 2.041 1.446 4.247 3.006 6.088 4.918 3.05 3.164 5.864 6.554 8.776 10.183"/><path fill="#268fc5" d="M596.026 486.026c-2.007 5.862-6.116 9.877-11.679 12.602-.322-1.032-.296-1.746-.27-2.46 0 0-.004-.107.394-.124 3.096-3.044 5.794-6.07 8.492-9.097 0 0 .037.053.336.027 1.099-.343 1.899-.66 2.699-.976z"/><path fill="#2082bc" d="M553.212 529.04c2.68-3.002 5.36-6.005 8.405-8.72.369.756.373 1.223.378 1.69-.9.811-1.798 1.623-3.064 2.817-.56.651-.754.918-.948 1.186-.568.493-1.137.987-2.057 1.844-.631.564-.816.83-.906 1.162 0 0-.02-.015-.313-.01z"/><path fill="#268fc5" d="M563.901 517.773c1.347-1.482 2.693-2.965 4.346-4.635.749.683 1.765 2.103 1.54 2.338-1.55 1.624-3.36 3.001-5.438 4.49-.352.031-.368.015-.364-.352a54 54 0 0 0-.084-1.84m-39.034 43.742c.747-1.802 1.852-3.412 3.511-5.295 1.252-.592 1.95-.912 2.648-1.233-1.934 2.24-3.867 4.48-6.159 6.528"/><path fill="#2082bc" d="M626.133 450.797c-1.817 1.85-3.524 3.49-5.545 5.181 1.684-2.621 3.683-5.295 6.037-7.692.359.759.36 1.241.363 1.724-.304.12-.552.313-.855.787m8.46-12.882c.349.38.376.874.404 1.737-.304.48-.553.664-1.152 1.272-.889 1.257-1.373 2.165-1.857 3.073-.307.115-.56.303-1.097.887-.61.532-.8.798-.907 1.125 0 0-.427.085-.83.09-.404.003-.787-.014-.787-.014 1.969-2.686 3.937-5.371 6.226-8.17m-63.359 72.119c1.989-2.33 3.977-4.659 6.35-7.026.383-.039.513.09.48.408-.044.747-.056 1.175-.069 1.603a322 322 0 0 0-4.05 3.804c-.65.595-.837.863-.93 1.197 0 0-.015-.02-.304-.012-.685.014-1.08.02-1.477.026"/><path fill="#268fc5" d="M547.929 534.837a23 23 0 0 1 1.464-1.785c.319-.269.61-.551.61-.551s.142-.255.522-.407c.778-.7 1.175-1.246 1.573-1.793 0 0 .043-.167.29-.215.249-.05.578-.12.624-.071l.136.146c-1.476 2.257-2.953 4.515-4.79 6.805-.359.033-.375.017-.37-.34a64 64 0 0 0-.06-1.79m-58.868 14.51c1.868 1.762 3.766 3.884 5.804 6.316-4.514.753-3.862-3.81-5.803-6.316"/><path fill="#2082bc" d="M531.152 554.731c-.824.578-1.522.898-2.496 1.264 1.041-1.6 2.358-3.247 4.01-4.631.335.724.333 1.186.332 1.648-.574.488-1.147.975-1.846 1.72"/><path fill="#268fc5" d="M533.362 552.964c-.363-.414-.361-.876-.372-1.685.691-1.01 1.395-1.674 2.37-2.434-.363 1.293-.998 2.682-1.998 4.119m11.619-15.013c.054-.34.223-.607 1.075-.876 1.02-.08 1.474-.086 1.927-.092l.025.025c-.769.985-1.546 1.96-2.663 2.632-.347-.767-.355-1.228-.364-1.689"/><path fill="#2082bc" d="M583.774 496.254c.277.628.25 1.342.22 2.414-.31.465-.56.647-1.187 1.121-.863.242-1.291.27-1.794.221-.075-.076-.222-.231-.222-.231.894-1.147 1.787-2.293 2.983-3.525"/><path fill="#268fc5" d="M628.08 446.191c.287-.106.67-.089.86-.052a11.7 11.7 0 0 1-1.6 3.807c-.354-.419-.356-.901-.385-1.746.26-.876.548-1.389 1.124-2.009"/><path fill="#2082bc" d="M577.902 502.906a22.6 22.6 0 0 1 2.599-3.008c.29-.12.437.036.483.432.035.826.024 1.256.012 1.686-.307.111-.558.297-1.189.773-.859.246-1.284.277-1.71.308z"/><path fill="#268fc5" d="M486.74 546.18c.89.586 1.55 1.369 2.242 2.47-.803-.544-1.638-1.408-2.242-2.47m145.593-102.237c.139-.854.623-1.762 1.399-2.812-.157.824-.606 1.791-1.4 2.812"/><path fill="#2082bc" d="M522.998 563.748c-.517.227-1.017.219-1.894.17.158-.7.69-1.361 1.56-1.78.347.463.358.684.369.905 0 0-.018.47-.035.705m18.48-21.605c.25-.64.642-1.26 1.352-1.856.288.394.26.768-.069 1.449-.483.344-.666.382-.849.42 0 0-.29.009-.434-.013"/><path fill="#268fc5" d="M581.319 501.971c-.311-.385-.3-.815-.26-1.564.457-.348.885-.376 1.636-.41-.136.639-.595 1.284-1.376 1.974m87.038-124.937c-.125-.528.03-1.117.444-1.884.118.489-.023 1.156-.444 1.884M562.314 521.965c-.324-.422-.328-.889-.364-1.705-.03-.35-.005-.309.324-.291.789.015 1.248.014 1.707.012l.025.025c-.452.644-.912 1.279-1.692 1.959m15.751-18.549c.458-.35.883-.381 1.63-.418-.138.64-.596 1.286-1.377 1.977-.31-.384-.298-.812-.253-1.559m91.304-130.376c-.134-.522.01-1.108.408-1.874.125.483-.002 1.146-.408 1.874"/><path fill="#2082bc" d="M544.676 538.03c.314.382.322.843.331 1.65-.378.374-.756.402-1.417.448.072-.66.426-1.34 1.086-2.098"/><path fill="#268fc5" d="M539.18 544.925c.164-.611.677-1.225 1.483-1.935-.183.581-.658 1.257-1.482 1.935"/><path fill="#2082bc" d="M483.91 541.468c.313-.14.63.025 1.025.46.078.272.123.7-.156.89-.447.184-.615.177-.784.17-.027-.405-.054-.81-.085-1.52"/><path fill="#268fc5" d="M571.08 510.235c.55-.207.946-.213 1.64-.217-.208.321-.713.64-1.536.94-.297-.187-.278-.355-.104-.723m-35.1 38.449c-.09-.483.147-1.021.663-1.69.074.457-.13 1.047-.663 1.69m17.162-19.629c.47-.023.872-.031 1.574-.034-.136.34-.574.674-1.29 1.074-.278.066-.368-.032-.38-.268s.042-.614.042-.614-.017-.143.054-.158m-29.785 33.935c-.335-.168-.346-.39-.378-.944.31-.465.643-.595 1.227-.669-.008.558-.266 1.06-.85 1.613m34.855-37.085q-.05-.238.577-.807.05.238-.577.807m-2.971 3.005q-.196-.336.557-.797.186.328-.557.797m-71.16 14.248c.084-.163.252-.156.672-.126-.028.114-.308.205-.673.126m57.963-.861c.053-.179.236-.217.697-.28-.003.123-.285.272-.697.28m-60.95-2.131c.094-.16.271-.15.714-.104-.033.115-.331.194-.714.104M630.21 445.9c-.12-.218.07-.484.566-.807q.052.236-.566.807m-56.973 64.008q-.193-.333.56-.806.187.33-.56.806"/><path fill="#131b43" d="M355.805 361.15c.194-.263.245-.295.27-.315 2.317 4.737 6.483 9.51 6.445 14.248-.053 6.5 3.831 10.498 5.897 15.611 1.536 3.803 2.927 7.692 4.806 11.323 2.4 4.64 5.368 8.984 7.834 13.593 3.443 6.431 6.648 12.99 9.965 19.867-7.648-11.56-16.307-22.99-22.65-35.586-5.14-10.21-7.497-21.823-11.09-32.813-.355-1.084-.728-2.162-1.355-3.507-.28-.895-.298-1.526-.122-2.42m68.187 114.227c1.74.498 3.934.927 5.251 2.236 9.529 9.467 18.963 19.033 28.256 28.73a338 338 0 0 1 15.472 17.295c1.51 1.811 2.03 4.448 2.993 7.094-8.525-8.422-17.151-17.125-25.523-26.067-8.926-9.533-17.611-19.29-26.449-29.288m-27.982-33.025a26 26 0 0 1 4.281 4.424c-1.562-1.235-2.89-2.666-4.28-4.424m13.036 15.994c1.263.857 2.561 2.05 3.841 3.62-1.281-.844-2.544-2.064-3.841-3.62m-3.821-4.043c1.206.776 2.484 1.858 3.764 3.31-1.23-.753-2.46-1.878-3.764-3.31m-3.155-3.971c.927.515 1.885 1.358 2.835 2.565-.94-.503-1.871-1.37-2.835-2.565m11.046 12.997c.921.489 1.862 1.306 2.808 2.474-.926-.482-1.857-1.313-2.808-2.473"/><path fill="#2f324f" d="M556.977 229.081c14.8 5.415 24.873 16.421 33.841 28.696 11.05 15.124 16.807 31.792 17.486 50.794.33 9.273.286 18.223-2.406 26.899-3.883 12.518-7.417 25.264-17.823 34.66-5.827 5.26-10.209 12.192-16.271 17.099-4.856 3.93-11.263 5.944-17.786 8.737-1.074-.15-1.345-.231-1.393-.58 17.41-8.924 31.092-21.204 40.86-38.002 23.167-39.84 10.875-94.58-27.488-120.056-6.976-4.632-14.659-8.2-21.819-12.518 2.39.236 4.584.731 6.779 1.226 0 0 .023-.032.183.287 1.38.783 2.601 1.246 3.822 1.71 0 0 .019-.029.187.232.722.446 1.275.631 1.828.816"/><path fill="#212541" d="M552.402 395.654c.271.081.542.162 1.227.336-.882 1.424-1.936 3.283-3.51 4.003-15.846 7.251-32.87 8.893-49.65 6.675-23.594-3.118-44.087-13.401-59.093-32.747-2.278-2.937-4.246-6.114-6.351-9.566.006-.385.036-.415.33-.387.69.035 1.084.042 1.788.216a359 359 0 0 1 10.873 13.438c.63.67 1.214 1.06 1.865 1.44.065-.012.067.122.157.318.274.44.518.58 1.124.768 1.803 1.519 3.304 2.885 4.855 4.561 1.024.972 1.997 1.632 3.268 2.338.766.398 1.234.752 1.765 1.443.821.676 1.58 1.015 2.532 1.354.195 0 .403.328.466.672 1.936 1.275 3.808 2.207 5.933 3.088.503.163.754.377 1.089.942.922.624 1.76.896 2.906 1.176.87.249 1.431.49 2.086 1.053.753.795 1.349 1.426 2.08 1.719 14.727 5.897 30.103 7.37 45.771 6.362 2.414-.155 4.748-1.548 7.433-2.53.78-.152 1.247-.142 1.939.097 2.069-.447 3.912-1.125 6.049-2.011.768-.222 1.242-.234 1.85-.052.709-.084 1.284-.363 2.131-.917 3.211-1.446 6.149-2.617 9.087-3.789m-117.387-31.669c-3.992-6.497-9-12.607-11.724-19.606-5.287-13.585-6.377-28.137-5.093-42.545 1.057-11.865 4.256-23.406 11.77-33.653.78-.14.972-.131 1.207.286.136.666.229.924.26 1.519-.724 1.528-1.388 2.719-2.34 4.02-.496.848-.705 1.585-.942 2.682-.875 2.649-1.724 4.938-2.91 7.348-.539 1.238-.74 2.355-.949 3.86-.362 1.615-.719 2.84-1.297 4.143-.204.69-.187 1.302-.112 2.26-.072.787-.202 1.229-.669 1.783-.915 1.444-1.979 2.772-1.988 4.108-.058 7.89.015 15.787.322 23.67.068 1.747 1.254 3.45 2.074 5.495.136.79.124 1.258-.107 1.957.453 2.063 1.123 3.895 1.998 6.026.219.779.233 1.257.037 1.952.54 1.724 1.29 3.232 2.236 4.987.287.86.38 1.475.402 2.439.442 1.003.953 1.657 1.711 2.586 2.262 4.253 4.277 8.231 6.232 12.612a30 30 0 0 0-.072 2.026z"/><path fill="#434967" d="M457.333 237.14s.327.024.8-.155c2.056-1.734 3.64-3.289 5.223-4.844.391-.25.783-.5 1.724-.859a48 48 0 0 0 3.092-1.027 17 17 0 0 0 2.056-.859 57 57 0 0 0 2.81-2.312s.015-.045.411 0c1.042-.092 1.75-.102 2.325-.384 15.747-7.704 32.568-8.936 49.576-7.315 6.017.574 11.8 3.593 17.29 5.57a35 35 0 0 1-4.25-.9c-24.105-6.556-47.277-4.438-69.22 7.794-5.29 2.948-10.162 6.645-15.202 9.673 1.138-1.677 2.251-3.03 3.365-4.382"/><path fill="#171a36" d="M543.04 224.881c-5.89-1.903-11.673-4.922-17.69-5.496-17.008-1.621-33.829-.389-49.576 7.315-.575.282-1.283.292-2.308.4 3.812-2.3 7.758-5.495 12.237-6.685 19.9-5.288 39.845-4.633 59.555 1.295 2.052.617 3.758 2.385 5.662 3.972-2.158-.14-4.352-.636-6.992-.848-.593.204-.74.126-.888.047m-74.665-49.905c5.733-3.69 12.345-5.404 19.6-4.352-6.344 1.68-12.761 3.023-19.6 4.352"/><path fill="#2082bc" d="M517.587 566.989c-.862 4.188-3.969 5.126-7.208 2.994-2.578-1.697-4.295-4.702-6.403-7.48 1.707 1.17 3.439 2.674 5.131 4.22 2.627 2.402 5.292 3.286 8.48.266"/><path fill="#434967" d="M442.417 251.15c.228-.104.417-.257.899-.803a47 47 0 0 0 1.719-2.264s.023-.028.336-.123c1.1-1.023 1.886-1.95 2.672-2.878 0 0-.001-.04.343-.165 1.912-.958 3.48-1.79 4.953-2.293-3.735 3.83-7.376 7.33-11.094 10.447.006-.896.089-1.408.172-1.921"/><path fill="#2082bc" d="M592.635 487.021a113 113 0 0 1-8.111 9.033c2.364-2.968 5.073-5.963 8.11-9.033"/><path fill="#171a36" d="M453.434 242.294a268 268 0 0 1-5.028 2.622c-.369-5.56 4.412-6.143 8.523-7.819-.71 1.395-1.823 2.748-3.047 4.584-.11.483-.448.613-.448.613"/><path fill="#2082bc" d="M601.621 477.01c-1.462 2.253-3.254 4.57-5.406 6.883 1.453-2.276 3.265-4.546 5.406-6.882"/><path fill="#171a36" d="M431.975 264.976c1.096-1.969 2.192-3.937 3.725-5.886.436.019.591.145.476.454-1.37 2.103-2.625 3.896-3.96 5.625zm30.99-32.854c-1.192 1.574-2.776 3.13-4.674 4.821a35.4 35.4 0 0 1 4.674-4.821"/><path fill="#2082bc" d="M646.62 420.946c-.69 1.593-1.697 3.283-3.029 5.027.688-1.607 1.7-3.268 3.03-5.027m-4.037 5.937c-.682 1.582-1.678 3.288-2.985 5.068.683-1.599 1.677-3.27 2.985-5.068m7.931-12.162c-.647 1.605-1.597 3.372-2.854 5.222.646-1.631 1.599-3.345 2.854-5.222m-33.924 45.174c-.699 1.274-1.715 2.652-3.06 4.079.694-1.292 1.719-2.634 3.06-4.08m-5.998 7c-.643 1.27-1.605 2.64-2.873 4.075.648-1.281 1.601-2.628 2.873-4.075m27.029-32.961c-.338.932-.987 1.958-1.946 3.043.339-.943.987-1.947 1.946-3.043"/><path fill="#171a36" d="M554.911 227.67c-1.17-.1-2.39-.564-3.771-1.327 1.134.12 2.427.542 3.771 1.327"/><path fill="#2082bc" d="M595.995 485.64c-.797.674-1.597.991-2.723 1.316.443-.974 1.212-1.955 2.294-3.016.35.394.389.87.429 1.7"/><path fill="#171a36" d="M442.012 251.147c.322.516.239 1.028.172 2.093.016.551-.305.711-.606.692a8 8 0 0 0-1.445.35c.491-1.046.982-2.092 1.879-3.135m5.655-6.084c-.41.947-1.196 1.874-2.281 2.886.436-.912 1.171-1.91 2.281-2.887m-16.536 22.997-.86-.04c.149-.981.585-1.95 1.363-2.98.34-.063.501.066.487.418-.339 1.102-.664 1.852-.99 2.602m4.928-9.014c.485-1.002 1.048-1.94 1.89-2.508.33.841.377 1.312.41 1.789-.013.005-.024.032-.314.002-.778.282-1.266.594-1.754.907zm31.936-29.063c-.67.58-1.517.886-2.718 1.178.612-.494 1.577-.973 2.718-1.178m4.671-2.919c-.4.689-1.172 1.357-2.25 2.128.423-.648 1.15-1.398 2.25-2.128"/><path fill="#2082bc" d="M519.615 564.897c-.14.59-.573 1.294-1.352 2.02.123-.62.592-1.263 1.352-2.02"/><path fill="#434967" d="M438.374 258.32a9.7 9.7 0 0 1-.05-1.758c.377-.447.66-.554 1.27-.646.33.02.557.231.5.534-.611.825-1.166 1.348-1.72 1.87"/><path fill="#2082bc" d="M563.985 519.614c-.463.369-.922.37-1.726.35.119-.676.583-1.328 1.344-2.085.328.385.357.876.382 1.735m39.63-44.714c-.13.6-.558 1.3-1.328 2.026.116-.625.574-1.275 1.328-2.026"/><path fill="#434967" d="M440.078 254.527c.436-.368.818-.491 1.514-.288-.271.854-.856 1.381-1.441 1.908 0 0-.226-.211-.343-.316-.005-.423.105-.74.27-1.304"/><path fill="#2082bc" d="M547.988 536.625c-.458.364-.912.37-1.705.364.128-.653.597-1.293 1.355-2.043.312.368.333.845.35 1.68m3.805-6.338c-.093.56-.49 1.106-1.14 1.737.111-.527.473-1.138 1.14-1.737"/><path fill="#171a36" d="M444.685 248.109c-.112.613-.574 1.253-1.285 2.074.145-.561.54-1.305 1.285-2.074m112.141-19.291c-.402.078-.955-.107-1.675-.537.396-.072.96.1 1.675.537"/><path fill="#2082bc" d="M549.858 532.46c.146.04-.146.323-.221.384-.075.06-.149-.23-.149-.23s.225-.195.37-.154m3.011-3.194c.22-.053.165.325.13.513-.033.187-.362.258-.526.292-.224-.303-.11-.565.396-.805m51.972-55.899c.073.167-.051.309-.314.504-.201-.197-.116-.391.314-.504"/><path fill="#f6f7f8" d="M440.094 256.45c.642-.83 1.227-1.357 1.799-2.191-.014-.308.307-.468.368-.637 3.702-3.668 7.343-7.168 11.078-10.998.095-.33.433-.46.519-.619 5.15-3.511 10.023-7.208 15.312-10.156 21.943-12.232 45.115-14.35 69.22-7.794 1.277.348 2.567.65 4.25.9.547.005.695.083 1.092.138 7.606 4.035 15.289 7.603 22.265 12.235 38.363 25.477 50.655 80.216 27.488 120.056-9.768 16.798-23.45 29.078-40.86 38.003-3.16 1.439-6.099 2.61-9.57 3.968a55 55 0 0 0-2.006.81c-.473.013-.947.025-2.065.195a318 318 0 0 0-5.925 1.833c-.466-.01-.932-.019-2.128.042-19.365 3.293-37.384.794-54.963-5.78-.56-.242-1.122-.484-2.154-1.022-1.257-.61-2.043-.924-2.829-1.238-.25-.214-.5-.428-1.207-.87-2.234-1.202-4.014-2.178-5.793-3.153 0 0-.208-.328-.56-.594a49 49 0 0 0-2.438-1.425 81 81 0 0 1-1.8-1.396c-1.338-1.008-2.28-1.683-3.22-2.359a233 233 0 0 1-4.836-4.493c-.53-.729-.814-.838-1.183-.721 0 0-.002-.134-.108-.402-.693-.659-1.28-1.05-1.868-1.44-3.507-4.33-7.014-8.661-10.884-13.466a236 236 0 0 0-1.895-2.364c-2.015-3.979-4.03-7.957-6.296-12.52a32 32 0 0 0-1.637-2.627 34 34 0 0 0-.444-2.428c-.796-2.013-1.426-3.439-2.055-4.864-.013-.478-.027-.956-.162-2.079a163 163 0 0 0-1.864-5.913c.013-.468.025-.936-.006-2.139-.505-4.86-1.374-8.988-1.331-13.107.068-6.625.74-13.244 1.156-19.865.13-.442.259-.884.515-1.875.134-1.077.142-1.605.15-2.134.356-1.225.713-2.45 1.356-4.255.527-1.65.767-2.72 1.006-3.791.848-2.29 1.697-4.578 2.863-7.34.525-1.209.732-1.944.939-2.68.664-1.19 1.328-2.381 2.336-4.103 2.434-4.164 4.525-7.799 6.616-11.434 0 0 .011-.027.025-.032.568-.528 1.123-1.051 1.734-1.876m103.488 11.5c-8.762-6.489-18.905-8.945-29.495-9.3-27.682-.927-51.774 20.353-54.426 47.969-2.739 28.524 15.553 53.056 43.852 58.68 24.924 4.952 49.864-9.22 59.948-33.405 9.423-22.6 1.379-49.203-19.879-63.944"/><path fill="#2f324f" d="M476.062 396.775c17.485 6.254 35.504 8.753 54.555 5.622-1.956.911-4.29 2.304-6.704 2.459-15.668 1.008-31.044-.465-45.771-6.362-.731-.293-1.327-.924-2.08-1.719m57.223 5.648c1.535-.789 3.295-1.347 5.406-1.854a24 24 0 0 1-5.406 1.854m-69.237-11.907c1.716.631 3.496 1.607 5.477 2.86a29.7 29.7 0 0 1-5.477-2.86m-8.031-5.806c.89.364 1.832 1.039 2.872 2.003-.875-.372-1.848-1.032-2.872-2.004m-8.001-7.087q.816.165 1.759 1.172-.817-.167-1.759-1.172m13.034 10.868c.632.049 1.328.435 2.18 1.087-.6-.072-1.359-.411-2.18-1.087m10.02 6.056c.701-.037 1.487.277 2.435.88-.676.016-1.513-.256-2.435-.88m70.114 5.814c.356-.403.847-.61 1.598-.73-.314.367-.89.646-1.598.73m-106.051-38.446c.57.228 1.081.858 1.646 1.796-.34.3-.735.293-1.423.258-.29-.569-.286-1.11-.223-2.054m14.905 17.466c.28-.313.562-.204.79.373-.272.207-.516.067-.79-.373m-27.822-83.298c-.079 6.51-.75 13.128-.818 19.753-.043 4.12.826 8.248 1.182 12.785-.776-1.31-1.962-3.013-2.03-4.76-.307-7.883-.38-15.78-.322-23.67.01-1.336 1.073-2.664 1.988-4.108"/><path fill="#434967" d="M438.045 258.328c-1.8 3.665-3.892 7.3-6.266 11.127-.375-.064-.468-.322-.604-.988.282-1.158.607-1.908 1.027-2.946 1.35-2.081 2.604-3.874 3.974-5.977.603-.622 1.091-.934 1.869-1.216"/><path fill="#2f324f" d="M422.517 331.312c.8 1.525 1.38 3.281 1.877 5.382-.754-1.487-1.424-3.319-1.877-5.382m2.035 7.978c.838 1.208 1.468 2.634 2.069 4.399-.778-1.167-1.528-2.675-2.069-4.4"/><path fill="#434967" d="M425.244 284.036c.098.95-.142 2.02-.662 3.282-.08-.927.122-2.044.662-3.282m3.852-10.03q.121.936-.625 2.209-.121-.937.625-2.209"/><path fill="#2f324f" d="M422.997 292.04c.214.45.206.978.014 1.71-.201-.409-.218-1.02-.014-1.71m4.193 54.676c.532.33.994 1.01 1.46 2-.507-.343-1.018-.997-1.46-2"/><path fill="#212541" d="M543.903 268.112c20.937 14.579 28.98 41.182 19.558 63.782-10.084 24.186-35.024 38.357-59.948 33.404-28.299-5.623-46.59-30.155-43.852-58.68 2.652-27.615 26.744-48.895 54.426-47.968 10.59.355 20.733 2.811 29.816 9.462m14.324 21.284c-3.908-5.126-7.193-10.919-11.838-15.255-14.433-13.474-46.3-17.454-62.885-2.661-5.839 5.208-11.814 10.119-15.19 17.194-5.862 12.29-6.102 25.225-2.825 38.243 4.906 19.483 18.429 30.099 37.077 34.973 12.556 3.283 24.726.344 35.42-5.787 23.207-13.306 32.877-40.885 20.24-66.707"/><path fill="#131a41" d="M558.432 289.712c12.431 25.506 2.76 53.085-20.447 66.39-10.693 6.132-22.863 9.07-35.42 5.788-18.647-4.874-32.17-15.49-37.076-34.973-3.277-13.018-3.037-25.953 2.826-38.243 3.375-7.075 9.35-11.986 15.19-17.194 16.584-14.793 48.451-10.813 62.884 2.661 4.645 4.336 7.93 10.129 12.043 15.571"/></svg>